<?xml version="1.0" encoding="utf-8"?>
<!-- Generator: Adobe Illustrator 24.0.1, SVG Export Plug-In . SVG Version: 6.00 Build 0)  -->
<svg version="1.1" id="Layer_1" xmlns="http://www.w3.org/2000/svg" xmlns:xlink="http://www.w3.org/1999/xlink" x="0px" y="0px"
	 viewBox="0 0 50 34" style="enable-background:new 0 0 50 34;" xml:space="preserve">
<style type="text/css">
	.st0{display:none;}
	.st1{display:inline;fill:#00FFDA;}
	.st2{display:inline;fill:#FF3333;}
	.st3{fill:#FF3333;}
	.st4{fill:#0000FF;}
</style>
<g class="st0">
	<rect x="2.6" y="2.3" class="st1" width="45" height="29.4"/>
	<path class="st2" d="M2.6,1C2.6,1,2.6,1,2.6,1H1.1v32h48V1H2.6z M25.1,21.8L6.2,3.9h37.7L25.1,21.8z M15.5,16.7L4.1,28v-22
		L15.5,16.7z M17.6,18.8l7.5,7.1l7.5-7.1L44,30.1H6.1L17.6,18.8z M34.7,16.7L46,5.9v22L34.7,16.7z"/>
</g>
<g>
	<rect x="2.6" y="2.3" class="st3" width="45" height="29.4"/>
	<path class="st4" d="M1.1,1v32h48V1H1.1z M25.1,21.8L6.2,3.9h37.7L25.1,21.8z M15.5,16.7L4.1,28v-22L15.5,16.7z M17.6,18.8l7.5,7.1
		l7.5-7.1L44,30.1H6.1L17.6,18.8z M34.7,16.7L46,5.9v22L34.7,16.7z"/>
</g>
</svg>
