<?xml version="1.0" encoding="utf-8"?>
<!-- Generator: Adobe Illustrator 24.0.1, SVG Export Plug-In . SVG Version: 6.00 Build 0)  -->
<svg version="1.1" id="Layer_1" xmlns="http://www.w3.org/2000/svg" xmlns:xlink="http://www.w3.org/1999/xlink" x="0px" y="0px"
	 viewBox="0 0 300 300" style="enable-background:new 0 0 300 300;" xml:space="preserve">
<style type="text/css">
	.st0{fill:#FF3333;}
	.st1{fill:#00FFDA;}
	.st2{fill:#0000FF;}
</style>
<g>
	<g>
		<path d="M39.3,191.7c0-0.6,0.5-1.2,1.1-1.2h13.7c11.5,0,20.9,10,20.9,22.1c0,12.3-9.4,22.2-20.9,22.2H40.3c-0.6,0-1.1-0.6-1.1-1.2
			V191.7z M53.2,228.9c8.8,0,15.1-6.8,15.1-16.2c0-9.3-6.4-16.1-15.1-16.1h-7.9v32.3H53.2z"/>
		<path d="M89.8,208.9c6.7,0,12,6.1,12,13.2c0,7.3-5.4,13.4-12,13.4s-12-6.1-12-13.4C77.8,215,83.1,208.9,89.8,208.9z M89.8,230.1
			c3.8,0,6.7-3.5,6.7-7.9c0-4.2-3-7.7-6.7-7.7c-3.8,0-6.7,3.5-6.7,7.7C83.1,226.5,86,230.1,89.8,230.1z"/>
		<path d="M106.5,209.9H104c-0.7,0-1.1-0.6-1.1-1.2v-2.9c0-0.7,0.5-1.2,1.1-1.2h2.5v-7c0-0.6,0.5-1.2,1.1-1.2l3.4-0.1
			c0.6,0,1.1,0.6,1.1,1.2v7.1h6.1c0.7,0,1.1,0.5,1.1,1.2v2.9c0,0.6-0.5,1.2-1.1,1.2h-6.1v17.4c0,2.2,0.8,2.5,1.9,2.5
			c1.3,0,2.9-0.8,3.6-1.1c0.8-0.4,1.1,0,1.4,0.6l1.1,2.8c0.3,0.7,0.1,1.2-0.5,1.5c-0.6,0.4-4.1,1.9-7,1.9c-4.7,0-6.1-3-6.1-7.5
			V209.9z"/>
		<path d="M123.6,200.1c0-2.1,1.5-3.7,3.4-3.7c2,0,3.5,1.6,3.5,3.7c0,2-1.5,3.7-3.5,3.7C125.1,203.8,123.6,202.1,123.6,200.1z
			 M124.2,210.7c0-0.6,0.5-1.2,1.1-1.2h3.4c0.6,0,1.1,0.6,1.1,1.2v22.9c0,0.6-0.5,1.2-1.1,1.2h-3.4c-0.6,0-1.1-0.6-1.1-1.2V210.7z"
			/>
		<path d="M134.6,210.7c0-0.6,0.5-1.2,1.1-1.2h1.7c0.5,0,0.8,0.3,1,0.8l0.7,2.2c0.4-0.5,3.6-3.5,8.3-3.5c7.3,0,10,5.5,10,12v12.7
			c0,0.6-0.5,1.2-1.1,1.2h-3.4c-0.7,0-1.1-0.6-1.1-1.2v-13c0-4.1-1.8-6.3-4.9-6.3c-3.8,0-6.3,2.9-6.6,3.8v15.5
			c0,0.8-0.4,1.2-1.4,1.2h-3.1c-0.6,0-1.1-0.6-1.1-1.2V210.7z"/>
		<path d="M162.2,228.8c0.5-0.8,1-1.7,1.5-2.5s1.3-1,1.9-0.5c0.3,0.3,4.7,4.2,9.1,4.2c3.9,0,6.4-2.5,6.4-5.6c0-3.6-3-5.9-8.6-8.4
			c-5.8-2.6-10.4-5.8-10.4-12.8c0-4.7,3.4-11.2,12.5-11.2c5.7,0,10,3.1,10.5,3.6c0.5,0.3,0.9,1.1,0.3,2.1c-0.5,0.7-1,1.6-1.4,2.3
			c-0.5,0.8-1.2,1.1-2,0.6c-0.4-0.2-4.4-3-7.7-3c-4.8,0-6.4,3.2-6.4,5.4c0,3.4,2.5,5.6,7.2,7.6c6.6,2.8,12.2,6.2,12.2,13.6
			c0,6.3-5.3,11.4-12.7,11.4c-6.9,0-11.3-3.9-12.2-4.8C162.1,230.3,161.7,229.8,162.2,228.8z"/>
		<path d="M197.8,247.5c0,0.7-0.4,1.2-1.3,1.2h-3.3c-0.6,0-1.1-0.6-1.1-1.2v-36.8c0-0.6,0.5-1.2,1.1-1.2h1.8c0.5,0,0.8,0.3,1,0.8
			l0.6,1.6c0.4-0.4,2.9-3.1,7.3-3.1c6.6,0,11.4,6.1,11.4,13.4c0,7.4-5.1,13.2-11.6,13.2c-3.1,0-5.4-1.5-5.8-1.7V247.5z M203,230.1
			c3.9,0,6.8-3.5,6.8-7.8c0-4.2-2.5-7.9-6.6-7.9c-3.5,0-5.2,2.9-5.5,3.7v10.1C197.7,228.2,199.8,230.1,203,230.1z"/>
		<path d="M231.2,208.9c6.7,0,12,6.1,12,13.2c0,7.3-5.4,13.4-12,13.4s-12-6.1-12-13.4C219.2,215,224.5,208.9,231.2,208.9z
			 M231.2,230.1c3.8,0,6.7-3.5,6.7-7.9c0-4.2-3-7.7-6.7-7.7c-3.8,0-6.7,3.5-6.7,7.7C224.5,226.5,227.5,230.1,231.2,230.1z"/>
		<path d="M247.1,204.1h-2.5c-0.7,0-1.1-0.6-1.1-1.2V200c0-0.7,0.5-1.2,1.1-1.2h2.5v-7c0-0.6,0.5-1.2,1.1-1.2l3.4-0.1
			c0.6,0,1.1,0.6,1.1,1.2v7.1h6.1c0.7,0,1.1,0.5,1.1,1.2v2.9c0,0.6-0.5,1.2-1.1,1.2h-6.1v23.3c0,2.2,0.8,2.5,1.9,2.5
			c1.3,0,2.9-0.8,3.6-1.1c0.8-0.4,1.1,0,1.4,0.6l1.1,2.8c0.3,0.7,0.1,1.2-0.5,1.5c-0.6,0.4-4.1,1.9-7,1.9c-4.7,0-6.1-3-6.1-7.5
			V204.1z"/>
	</g>
	<g>
		<g>
			<g>
				<g>
					<path class="st0" d="M150.3,171.7c-30.7,0-59.6-2.7-81.5-7.5c-10.9-2.4-19.6-5.3-25.7-8.5c-8.1-4.3-12.2-9.5-12.2-15.5
						c0-6,4.1-11.2,12.2-15.5c6.2-3.2,14.8-6.1,25.7-8.5c21.8-4.8,50.7-7.5,81.5-7.5c30.7,0,59.6,2.7,81.5,7.5
						c10.9,2.4,19.6,5.3,25.7,8.5c8.1,4.3,12.2,9.5,12.2,15.5c0,6-4.1,11.2-12.2,15.5c-6.2,3.2-14.8,6.1-25.7,8.5
						C209.9,169.1,181,171.7,150.3,171.7z"/>
				</g>
			</g>
			<g id="Group_2_4_">
				<path class="st1" d="M147.5,171.9c-12.3,0-24.2-0.8-34.4-1.6l-7.7-0.6l-2.3-7.9c-4.8-16.7-3.7-37.8-0.1-50
					c4.6-15.6,13.2-29,24.8-38.6c12.2-10.1,27-15.4,42.7-15.4c17.3,0,33,6.4,45.5,18.5c11.7,11.3,19.7,27.3,22.7,44.9
					c2.1,12.6,1.9,27.8,0.3,34.2l-1.7,7.1l-6.7,1.6C209.3,169.3,181.4,171.9,147.5,171.9z"/>
				<path class="st2" d="M238.6,121.2c2.1,12.6,1.9,27.8,0.3,34.2l-1.7,7.1l-6.7,1.6c-21.2,5.1-49.1,7.7-83.1,7.7
					c-12.3,0-24.2-0.8-34.4-1.6l-7.7-0.6l-2.3-7.9c-4.8-16.7-3.7-37.8-0.1-50c0,0,34-4.8,67.9-2.9S238.6,121.2,238.6,121.2z"/>
				<path d="M269.9,126.4c-2.5-2.7-5.7-5-9.8-7.2c-4.6-2.4-10.4-4.6-17.3-6.6c-4-15.9-12-30.1-22.8-40.6
					c-13.6-13.2-30.7-20.2-49.4-20.2c-17,0-33,5.8-46.3,16.8c-11.3,9.4-20,21.9-25.2,36.6c-11.5,1.3-22.1,2.9-31.5,5
					c-11.4,2.5-20.5,5.6-27.1,9c-4.2,2.2-7.4,4.5-9.8,7.2c-4.7,5.1-5.7,10.4-5.7,13.9s1,8.8,5.7,13.9c2.5,2.7,5.7,5,9.8,7.2
					c6.6,3.5,15.7,6.5,27.1,9c22.2,4.9,51.6,7.6,82.7,7.6c31.1,0,60.5-2.7,82.7-7.6c11.4-2.5,20.5-5.6,27.1-9
					c4.2-2.2,7.4-4.5,9.8-7.2c4.7-5.1,5.7-10.4,5.7-13.9S274.6,131.5,269.9,126.4z M131.5,78.4c11.2-9.2,24.7-14.1,39.1-14.1
					c15.8,0,30.2,5.8,41.5,16.9c7.7,7.5,13.7,17.2,17.5,28.2c-21.8-4.5-49.7-6.9-79.2-6.9c-13.1,0-25.9,0.5-37.9,1.4
					C116.8,93.8,123.3,85.2,131.5,78.4z M36.8,140.3c0-9.5,23.8-17.8,58.8-22.1c-2.2,12.8-2.3,29.9,1.5,44.3
					C61.2,158.3,36.8,149.9,36.8,140.3z M109.8,163.8l-1-3.5c-4-14.1-3.5-32-0.9-43.4c13.1-1.2,27.4-1.8,42.4-1.8
					c32.6,0,61.9,3,82.6,7.9c1.7,10.3,1.8,25,0.3,31.2l-0.9,3.5c-20.7,4.8-49.8,7.8-82.1,7.8C136,165.4,122.4,164.9,109.8,163.8z
					 M245.3,154c1.1-7.6,1-18.6,0-27.6c11.7,4,18.5,8.7,18.5,13.8C263.8,145.3,257,150.1,245.3,154z"/>
			</g>
		</g>
	</g>
</g>
</svg>
