<?xml version="1.0" encoding="utf-8"?>
<!-- Generator: Adobe Illustrator 24.0.1, SVG Export Plug-In . SVG Version: 6.00 Build 0)  -->
<svg version="1.1" id="Layer_1" xmlns="http://www.w3.org/2000/svg" xmlns:xlink="http://www.w3.org/1999/xlink" x="0px" y="0px"
	 viewBox="0 0 32 32" style="enable-background:new 0 0 32 32;" xml:space="preserve">
<style type="text/css">
	.st0{fill:#0000FF;}
	.st1{display:none;}
	.st2{display:inline;fill:#00FFDA;}
	.st3{display:inline;fill:#FF3333;}
	.st4{display:inline;fill:#FFFFFF;}
	.st5{display:none;fill:#FFFFFF;}
	.st6{fill:#FFFFFF;}
</style>
<g id="behance_5_">
	<circle class="st0" cx="16" cy="16.3" r="15"/>
</g>
<g id="vimeo_5_" class="st1">
	<circle class="st2" cx="16" cy="16.3" r="15"/>
</g>
<g class="st1">
	<circle class="st3" cx="16" cy="16.3" r="15"/>
</g>
<g class="st1">
	<rect x="18.7" y="11.6" class="st4" width="4.4" height="1.4"/>
	<path class="st4" d="M24.6,17.1c-0.1-0.6-0.3-1.2-0.6-1.7c-0.3-0.6-0.8-1-1.3-1.2c-0.5-0.3-1.1-0.4-1.8-0.4c-1.1,0-2,0.4-2.7,1.1
		c-0.7,0.8-1,1.9-1,3.3c0,1.5,0.4,2.6,1.2,3.3c0.8,0.7,1.7,1,2.7,1c1.2,0,2.2-0.4,2.8-1.2c0.4-0.5,0.7-1,0.7-1.5h-2
		c-0.1,0.2-0.3,0.4-0.4,0.6c-0.3,0.3-0.6,0.4-1.1,0.4c-0.4,0-0.8-0.1-1.1-0.3c-0.5-0.3-0.8-0.9-0.8-1.7h5.5
		C24.7,18,24.7,17.5,24.6,17.1z M19.2,17.3c0.1-0.5,0.2-1,0.5-1.3c0.3-0.3,0.7-0.5,1.2-0.5c0.5,0,0.9,0.1,1.2,0.4
		c0.3,0.3,0.5,0.7,0.5,1.3H19.2z"/>
	<path class="st4" d="M15,16.3c0.3-0.2,0.6-0.4,0.8-0.6c0.3-0.4,0.5-1,0.5-1.6c0-0.7-0.2-1.2-0.5-1.7c-0.5-0.8-1.4-1.2-2.6-1.2H8.2
		v11.1h4.6c0.5,0,1,0,1.4-0.1c0.4-0.1,0.8-0.3,1.2-0.6c0.3-0.2,0.5-0.5,0.7-0.9c0.3-0.5,0.5-1.1,0.5-1.8c0-0.6-0.1-1.2-0.4-1.6
		C15.9,16.8,15.5,16.5,15,16.3z M10.2,13h2.2c0.5,0,0.9,0.1,1.2,0.2c0.4,0.2,0.5,0.5,0.5,1c0,0.5-0.1,0.8-0.4,1
		c-0.3,0.2-0.6,0.3-1.1,0.3h-2.5V13z M13.7,20.1c-0.2,0.1-0.6,0.2-1,0.2h-2.5v-3h2.5c0.4,0,0.8,0.1,1,0.2c0.4,0.2,0.6,0.6,0.6,1.2
		C14.4,19.4,14.2,19.9,13.7,20.1z"/>
</g>
<path class="st5" d="M22.4,13.7c-0.1,1.3-1,3.2-2.8,5.5c-1.9,2.4-3.4,3.6-4.7,3.6c-0.8,0-1.5-0.7-2-2.2c-0.4-1.4-0.7-2.7-1.1-4.1
	c-0.4-1.5-0.8-2.2-1.3-2.2c-0.1,0-0.5,0.2-1.1,0.6l-0.6-0.8c0.7-0.6,1.3-1.2,2-1.8c0.9-0.8,1.6-1.2,2-1.2c1.1-0.1,1.7,0.6,2,2.2
	c0.3,1.7,0.4,2.7,0.5,3.1c0.3,1.4,0.6,2.1,1,2.1c0.3,0,0.7-0.5,1.3-1.4c0.6-0.9,0.9-1.6,0.9-2.1c0.1-0.8-0.2-1.2-0.9-1.2
	c-0.3,0-0.7,0.1-1,0.2c0.7-2.2,2-3.3,3.9-3.2C21.8,11,22.5,11.9,22.4,13.7z"/>
<path class="st6" d="M20.9,25.2h-9.7c-2.2,0-4-1.8-4-4v-9.7c0-2.2,1.8-4,4-4h9.7c2.2,0,4,1.8,4,4v9.7C25,23.4,23.2,25.2,20.9,25.2z
	 M11.2,9.3c-1.2,0-2.3,1-2.3,2.2v9.7c0,1.2,1,2.2,2.3,2.2h9.7c1.2,0,2.2-1,2.2-2.2v-9.7c0-1.2-1-2.2-2.2-2.2H11.2z M16.1,21
	c-2.5,0-4.6-2-4.6-4.6c0-2.5,2.1-4.6,4.6-4.6c2.5,0,4.6,2,4.6,4.6C20.7,19,18.6,21,16.1,21z M16.1,13.6c-1.6,0-2.8,1.3-2.8,2.8
	c0,1.5,1.3,2.8,2.8,2.8c1.6,0,2.8-1.3,2.8-2.8C18.9,14.9,17.6,13.6,16.1,13.6z M20.9,10.7c-0.6,0-1.2,0.5-1.2,1.2
	c0,0.6,0.5,1.2,1.2,1.2c0.6,0,1.2-0.5,1.2-1.2C22,11.3,21.5,10.7,20.9,10.7z"/>
</svg>
